<?xml version="1.0" encoding="utf-8"?>
<svg version="1.1" id="Layer_1" xmlns="http://www.w3.org/2000/svg" x="0px" y="0px" viewBox="0 0 500 500" style="enable-background:new 0 0 500 500;">
  <g>
    <defs>
      <path id="SVGID_1_" d="M416.791,291.235c-27.602,42.311-89.408,71.779-161.226,71.779c-73.156,0-141.265-37.076-162.733-74.152 c-1.531-2.643-18.106-0.641-19.563-3.859C48.471,230.212,53.338,93.261,189.125,90.779c143.763-2.627,215.354,2.438,215.354,2.438 l37.523,164.269L416.791,291.235z"/>
    </defs>
    <clipPath id="SVGID_00000081610686155454034990000011560537877856478382_">
      <path d="M416.791,291.235c-27.602,42.311-89.408,71.779-161.226,71.779c-73.156,0-141.265-37.076-162.733-74.152 c-1.531-2.643-18.106-0.641-19.563-3.859C48.471,230.212,53.338,93.261,189.125,90.779c143.763-2.627,215.354,2.438,215.354,2.438 l37.523,164.269L416.791,291.235z" style="overflow: visible;"/>
    </clipPath>
    <g style="clip-path:url(#SVGID_00000081610686155454034990000011560537877856478382_);">
      <path style="fill:#E8F1FF;" d="M418.212,294.02H255.301h-4.178h-4.795c-4.564,0-8.264-3.701-8.264-8.264 c0-4.563,3.7-8.264,8.264-8.264h5.383h3.59h100.003c5.595,0,10.13-4.535,10.13-10.129c0-5.596-4.535-10.13-10.13-10.13h-24.736 c0.03-0.058,0.051-0.119,0.078-0.178h-14.184c-1.537,0-2.781-1.245-2.781-2.781c0-1.534,1.244-2.778,2.781-2.778h14.318h8.364 h65.551c5.699,0,10.317-4.62,10.317-10.318c0-5.697-4.618-10.318-10.317-10.318H275.372c0.044-0.079,0.077-0.164,0.118-0.243 h-2.072c-2.874,0-5.203-2.331-5.203-5.205c0-2.659,1.994-4.847,4.567-5.162c-0.021-0.013-0.038-0.03-0.058-0.043h0.693h8.821 h28.135c4.498,0,8.145-3.646,8.145-8.144c0-4.498-3.646-8.144-8.145-8.144h-11.305c-0.254,0.033-0.51,0.055-0.771,0.055H280.99 c-3.294,0-5.967-2.672-5.967-5.968c0-3.296,2.673-5.969,5.967-5.969h6.178h11.13h32.01c6.209,0,11.245-5.035,11.245-11.245 c0-6.211-5.036-11.246-11.245-11.246h-99.738h-20.258h-0.887c0.019-0.02,0.036-0.042,0.055-0.063 c-3.151-0.426-5.588-3.221-5.588-6.614c0-3.23,2.207-5.924,5.139-6.541c-0.046-0.043-0.088-0.092-0.136-0.134h1.417h20.258h28.883 c5.595,0,10.129-4.535,10.129-10.129c0-5.594-4.534-10.128-10.129-10.128H114.443c-5.594,0-10.129,4.535-10.129,10.128 c0,5.595,4.535,10.129,10.129,10.129h40.585h18.502h1.756c3.546,0,6.42,2.989,6.42,6.675c0,3.688-2.874,6.676-6.42,6.676H173 h-17.972h-13.347c-6.21,0-11.246,5.035-11.246,11.246c0,6.21,5.035,11.245,11.246,11.245h30.348h5.328h14.382 c3.296,0,5.968,2.672,5.968,5.969c0,3.296-2.672,5.968-5.968,5.968h-19.71c-0.262,0-0.518-0.022-0.771-0.055h-75.97 c-4.498,0-8.144,3.646-8.144,8.144c0,4.497,3.646,8.144,8.144,8.144h80.3c-2.211,1.426-3.678,3.904-3.678,6.729 c0,4.423,3.585,8.008,8.008,8.008h20.757c-1.318,1.732-2.109,3.888-2.109,6.232c0,5.698,4.62,10.318,10.317,10.318h24.253h11.277 h17.214c1.534,0,2.779,1.244,2.779,2.778c0,1.536-1.245,2.781-2.779,2.781h-17.08c0.027,0.059,0.049,0.12,0.078,0.178H93.01 c-5.595,0-10.13,4.534-10.13,10.13c0,5.594,4.535,10.129,10.13,10.129h37.546h6.337h2.635c4.564,0,8.263,3.7,8.263,8.264 c0,4.563-3.699,8.264-8.263,8.264h-2.047h-6.925h-25.818c-4.711,0-8.53,3.818-8.53,8.529c0,4.711,3.819,8.529,8.53,8.529h155.035 h7.201h6.914c4.122,0,7.464,3.342,7.464,7.464s-3.342,7.464-7.464,7.464h-7.868h-6.247h-47.826 c-6.212,0-11.248,5.036-11.248,11.249v0.961c0,6.212,5.036,11.248,11.248,11.248H382.44c6.212,0,11.248-5.036,11.248-11.248 v-0.961c0-6.213-5.036-11.249-11.248-11.249h-13.882h-8.205h-5.91c-4.122,0-7.464-3.342-7.464-7.464s3.342-7.464,7.464-7.464 h4.957h9.158h49.653c4.712,0,8.53-3.818,8.53-8.529C426.742,297.838,422.924,294.02,418.212,294.02z"/>
      <path style="fill:#E8F1FF;" d="M308.836,122.354l21.294-0.2c2.967,0,5.374,2.406,5.374,5.374c0,2.968-2.407,5.375-5.374,5.375 c0,0-6.589,0.341-6.589,8.661c0,6.048,4.902,10.952,10.951,10.952h48.022c6.049,0,10.951-4.903,10.951-10.952 c0-6.048-4.902-10.951-10.951-10.951l-19.678,0.289c-2.676,0-4.843-2.168-4.843-4.842c0-2.674,2.167-4.842,4.843-4.842h4.462 c3.014-1.618,5.066-4.798,5.066-8.459c0-5.3-4.297-9.596-9.597-9.596h-53.932c-5.301,0-9.597,4.296-9.597,9.596 C299.239,118.058,303.535,122.354,308.836,122.354z"/>
    </g>
    <g style="clip-path:url(#SVGID_00000081610686155454034990000011560537877856478382_);">
      <g>
        <path style="fill:#E0BCB1;stroke:#706F6F;stroke-width:2;stroke-linecap:round;stroke-linejoin:round;stroke-miterlimit:10;" d=" M250.7,217.953c-9.022-2.746-20.52-22.487-20.326-25.727c0.439-7.263,6.53-17.097,6.53-17.097s-11.524,6.309-2.181-10.353 c9.34-16.66-14.327-42.003-14.327-42.003l-10.985,37.136c-6.223-3.651-13.465-5.752-21.202-5.752 c-7.991,0-15.462,2.234-21.82,6.112l-11.091-37.496c0,0-23.669,25.344-14.329,42.003c9.343,16.661-2.182,10.353-2.182,10.353 s6.557,11.44,7.027,19.257c0.178,2.967-11.024,20.381-19.35,23.567c-10.749,4.114,10.601,14.123,10.601,14.123l-3.749,6.399 c0,0,4.879,4.403,7.162,5.958l-10.849,101.745h39.593c-9.632-12.188-19.324-28.413-19.324-44.389 c0-31.768,38.311-36.253,38.311-36.253s38.313,4.484,38.313,36.253c0,15.976-9.69,65.644-19.324,77.831h39.593l-10.829-135.006 c0.554-0.373,7.449-6.928,7.449-6.928l-3.311-5.611C240.099,232.076,264.209,222.067,250.7,217.953z"/>
        <path style="fill:#F4D3A6;stroke:#706F6F;stroke-width:2;stroke-miterlimit:10;" d="M188.208,265.537 c0,0-38.311,4.484-38.311,36.253c0,15.976,7.204,38.315,16.836,50.503l40.462,27.328c9.634-12.188,19.324-61.855,19.324-77.831 C226.52,270.022,188.208,265.537,188.208,265.537z"/>
      </g>
      <path style="fill:#F9F1CD;stroke:#706F6F;stroke-width:2;stroke-miterlimit:10;" d="M209.064,235.798 c0,8.258-6.695,14.951-14.951,14.951h-11.809c-8.257,0-14.951-6.693-14.951-14.951v-11.809c0-8.257,6.694-14.95,14.951-14.95 h11.809c8.256,0,14.951,6.693,14.951,14.95V235.798z"/>
      <path style="fill:#E9A0B5;stroke:#706F6F;stroke-width:2;stroke-linecap:round;stroke-linejoin:round;stroke-miterlimit:10;" d=" M199.805,215.554c0,3.597-2.916,6.514-6.514,6.514h-10.164c-3.596,0-6.514-2.917-6.514-6.514l0,0c0-3.598,2.917-6.514,6.514-6.514 h10.164C196.889,209.04,199.805,211.956,199.805,215.554L199.805,215.554z"/>
      <line style="fill:none;stroke:#706F6F;stroke-width:2;stroke-linecap:round;stroke-linejoin:round;stroke-miterlimit:10;" x1="202.033" y1="185.044" x2="208.851" y2="185.044"/>
      <line style="fill:none;stroke:#706F6F;stroke-width:2;stroke-linecap:round;stroke-linejoin:round;stroke-miterlimit:10;" x1="188.581" y1="222.067" x2="188.581" y2="237.436"/>
      <path style="fill:none;stroke:#706F6F;stroke-width:2;stroke-linecap:round;stroke-linejoin:round;stroke-miterlimit:10;" d=" M188.208,265.754"/>
      <path style="fill:none;stroke:#706F6F;stroke-width:2;stroke-linecap:round;stroke-linejoin:round;stroke-miterlimit:10;" d=" M167.444,237.436c0,0,5.505,2.254,9.434,2.254c4.521,0,11.703-2.254,11.703-2.254s5.691,2.254,10.263,2.254 c4.564,0,10.221-2.254,10.221-2.254"/>
      <path style="fill:#82807C;stroke:#706F6F;stroke-width:2;stroke-linecap:round;stroke-linejoin:round;stroke-miterlimit:10;" d=" M210.868,194.57c0,2.997-2.429,5.427-5.426,5.427c-2.998,0-5.426-2.43-5.426-5.427s2.428-5.427,5.426-5.427 C208.439,189.144,210.868,191.573,210.868,194.57z"/>
      <path style="fill:#82807C;stroke:#706F6F;stroke-width:2;stroke-linecap:round;stroke-linejoin:round;stroke-miterlimit:10;" d=" M176.403,194.57c0,2.997-2.429,5.427-5.426,5.427c-2.998,0-5.425-2.43-5.425-5.427s2.427-5.427,5.425-5.427 C173.974,189.144,176.403,191.573,176.403,194.57z"/>
      <line style="fill:none;stroke:#706F6F;stroke-width:2;stroke-linecap:round;stroke-linejoin:round;stroke-miterlimit:10;" x1="167.568" y1="185.044" x2="174.386" y2="185.044"/>
      <path style="fill:#F4D3A6;stroke:#706F6F;stroke-width:2;stroke-miterlimit:10;" d="M223.741,138.555l-7.059,25.748l3.531,7.892 C220.213,172.195,231.634,153.506,223.741,138.555z"/>
      <path style="fill:#F4D3A6;stroke:#706F6F;stroke-width:2;stroke-miterlimit:10;" d="M150.936,138.555l7.06,25.748l-3.53,7.892 C154.466,172.195,143.046,153.506,150.936,138.555z"/>
    </g>
    <g style="clip-path:url(#SVGID_00000081610686155454034990000011560537877856478382_);">
      <path style="fill:#FFFFFF;stroke:#706F6F;stroke-width:2;stroke-linecap:round;stroke-linejoin:round;stroke-miterlimit:10;" d=" M346.528,295.147c0-11.151,7.725-22.143,18.683-22.898c-1.962-10.898-3.79-19.632-3.79-19.632l-0.013,0.015 c-0.053-3.835-1.674-41.681-1.674-41.681l-22.173,17.897c-6.27-3.867-13.651-6.106-21.559-6.106 c-7.903,0-15.279,2.234-21.547,6.097l-24.3-17.889c0,0-1.645,37.815-1.697,41.681l-0.015-0.015c0,0-1.145,8.72-2.512,19.607 c11.1,0.61,18.982,11.671,18.982,22.923c0,5.691-2.26,10.854-5.925,14.646c0.092,0.065,0.143,0.099,0.143,0.099l-4.276,55.033 h18.119c0-12.686,22.971-41.716,22.971-41.716s22.97,18.719,22.97,31.405l18.232-8.436l-4.231-35.92 C348.977,306.429,346.528,301.076,346.528,295.147z M355.085,222.081v26.409l-6.772-13.203L355.085,222.081z M274.573,248.489 v-26.409l6.771,13.206L274.573,248.489z M292.853,264.273c0-2.63,2.132-4.761,4.761-4.761h-7.686h7.686h0.347h-0.347 c2.63,0,4.764,2.131,4.764,4.761c0,2.631-2.134,4.763-4.764,4.763C294.985,269.036,292.853,266.904,292.853,264.273z M325.642,302.182c-5.355,0-9.697-4.34-9.697-9.695c0,5.355-4.344,9.695-9.699,9.695c-5.356,0-9.699-4.34-9.699-9.695 c0,5.355,4.343,9.695,9.699,9.695c5.355,0,9.699-4.34,9.699-9.695c0,0-7.508-3.362-7.508-7.508c0-4.148,7.508-1.096,7.508-1.096 s7.507-3.053,7.507,1.096c0,4.146-7.507,7.508-7.507,7.508C315.944,297.842,320.286,302.182,325.642,302.182 c5.356,0,9.698-4.34,9.698-9.695C335.34,297.842,330.998,302.182,325.642,302.182z M339.033,264.273 c0,2.631-2.132,4.763-4.761,4.763c-2.631,0-4.762-2.132-4.762-4.763c0-2.63,2.131-4.761,4.762-4.761h8.031h-8.031 C336.901,259.513,339.033,261.644,339.033,264.273z"/>
      <path style="fill:#F4D3A6;stroke:#706F6F;stroke-width:2;stroke-linecap:round;stroke-linejoin:round;stroke-miterlimit:10;" d=" M315.944,323.21c0,0-22.971-17.765-22.971,41.716l45.94-10.311C338.914,306.747,315.944,323.21,315.944,323.21z"/>
      <polygon style="fill:#F9F1CD;stroke:#706F6F;stroke-width:2;stroke-linecap:round;stroke-linejoin:round;stroke-miterlimit:10;" points="&#xA;&#9;&#9;&#9;274.573,248.489 281.344,235.286 274.573,222.081 &#9;&#9;"/>
      <polygon style="fill:#F9F1CD;stroke:#706F6F;stroke-width:2;stroke-linecap:round;stroke-linejoin:round;stroke-miterlimit:10;" points="&#xA;&#9;&#9;&#9;355.085,222.081 348.313,235.286 355.085,248.489 &#9;&#9;"/>
      <path style="fill:#E9A0B5;stroke:#706F6F;stroke-width:2;stroke-linecap:round;stroke-linejoin:round;stroke-miterlimit:10;" d=" M323.451,284.978c0-4.148-7.507-1.096-7.507-1.096s-7.508-3.053-7.508,1.096c0,4.146,7.508,7.508,7.508,7.508 S323.451,289.124,323.451,284.978z"/>
      <path style="fill:#82807C;stroke:#706F6F;stroke-width:2;stroke-linecap:round;stroke-linejoin:round;stroke-miterlimit:10;" d=" M329.511,264.273c0,2.631,2.131,4.763,4.762,4.763c2.629,0,4.761-2.132,4.761-4.763c0-2.63-2.132-4.761-4.761-4.761 C331.642,259.513,329.511,261.644,329.511,264.273z"/>
      <path style="fill:#82807C;stroke:#706F6F;stroke-width:2;stroke-linecap:round;stroke-linejoin:round;stroke-miterlimit:10;" d=" M302.378,264.273c0-2.63-2.134-4.761-4.764-4.761c-2.629,0-4.761,2.131-4.761,4.761c0,2.631,2.132,4.763,4.761,4.763 C300.244,269.036,302.378,266.904,302.378,264.273z"/>
      <path style="fill:#F4D3A6;stroke:#706F6F;stroke-width:2;stroke-linecap:round;stroke-linejoin:round;stroke-miterlimit:10;" d=" M367.616,291.413c1.082-4.022-0.89-10.748-2.405-19.164c-10.958,0.756-18.683,11.747-18.683,22.898 c0,5.929,2.449,11.281,6.387,15.111l-0.043-0.366C352.872,309.893,366.087,297.113,367.616,291.413z"/>
      <path style="fill:#F4D3A6;stroke:#706F6F;stroke-width:2;stroke-linecap:round;stroke-linejoin:round;stroke-miterlimit:10;" d=" M265.932,272.225c-1.059,8.425-2.627,15.162-1.546,19.188c1.439,5.356,13.186,17.397,14.603,18.381 c3.665-3.793,5.925-8.955,5.925-14.646C284.913,283.896,277.031,272.835,265.932,272.225z"/>
    </g>
  </g>
  <path style="fill:none;stroke:#706F6F;stroke-width:2;stroke-linecap:round;stroke-linejoin:round;stroke-miterlimit:10;" d=" M416.791,291.235c-27.602,42.311-89.408,71.779-161.226,71.779c-73.156,0-135.922-30.575-162.733-74.152"/>
  <path style="fill:#706F6F;" d="M296.233,98.435c1.153-4.611-2.162-8.906-7.337-5.937c-3.169-5.059-8.116-2.832-9.271,1.779 c-1.042,4.165,4.826,9.309,6.088,10.358l-0.032,0.127c0,0,0.056-0.011,0.151-0.029c0.074,0.061,0.12,0.096,0.12,0.096l0.031-0.128 C287.591,104.372,295.19,102.6,296.233,98.435z"/>
  <path style="fill:#706F6F;" d="M104.834,242.696c-2.525-2.947-6.954-2.771-7.423,2.08c-4.867-0.279-5.721,4.068-3.196,7.017 c2.282,2.662,8.481,1.184,9.777,0.84l0.069,0.081c0,0,0.02-0.04,0.051-0.114c0.077-0.02,0.123-0.032,0.123-0.032l-0.071-0.082 C104.705,251.259,107.115,245.359,104.834,242.696z"/>
  <g>
    <g>
      <g>
        <path style="fill:none;stroke:#706F6F;stroke-width:3;stroke-miterlimit:10;" d="M235.127,80.646c1.47,0.87,2.853,1.8,4.15,2.785 "/>
        <path style="fill:none;stroke:#706F6F;stroke-width:3;stroke-miterlimit:10;stroke-dasharray:9.8244,9.8244;" d="M246.33,90.242 c12.495,15.396,11.599,37.511,3.53,50.857"/>
        <path style="fill:none;stroke:#706F6F;stroke-width:3;stroke-miterlimit:10;" d="M247.014,145.083 c-1.108,1.31-2.303,2.479-3.577,3.483"/>
      </g>
    </g>
  </g>
  <g>
    <g>
      <g>
        <path style="fill:none;stroke:#706F6F;stroke-width:3;stroke-miterlimit:10;" d="M358.164,149.902 c1.597,0.599,3.117,1.282,4.561,2.042"/>
        <path style="fill:none;stroke:#706F6F;stroke-width:3;stroke-miterlimit:10;stroke-dasharray:10.2751,10.2751;" d=" M371.075,157.884c14.789,13.871,16.729,37.79,7.81,51.981"/>
        <path style="fill:none;stroke:#706F6F;stroke-width:3;stroke-miterlimit:10;" d="M375.776,213.931 c-1.142,1.226-2.395,2.329-3.757,3.287"/>
      </g>
    </g>
  </g>
  <polygon style="fill:#FFE797;stroke:#EFC468;stroke-width:2;stroke-miterlimit:10;" points="403.926,228.516 407.9,236.57 &#xA;&#9;416.79,237.862 410.357,244.133 411.877,252.986 403.926,248.807 395.973,252.986 397.493,244.133 391.06,237.862 399.949,236.57 &#xA;&#9;"/>
  <polygon style="fill:#FFB9C6;stroke:#EF88B8;stroke-width:2;stroke-miterlimit:10;" points="130.623,92.242 130.053,101.207 &#xA;&#9;137.113,106.76 128.411,108.987 125.312,117.418 120.504,109.83 111.528,109.487 117.258,102.571 114.811,93.928 123.16,97.242 "/>
  <path style="fill:none;stroke:#706F6F;stroke-width:2;stroke-miterlimit:10;" d="M361.689,116.108c0,4.373-3.547,7.918-7.918,7.918 s-7.918-3.545-7.918-7.918c0-4.373,3.547-7.917,7.918-7.917S361.689,111.736,361.689,116.108z"/>
  <path style="fill:none;stroke:#706F6F;stroke-width:2;stroke-miterlimit:10;" d="M363.213,187.291c0,2.789-2.26,5.048-5.048,5.048 c-2.788,0-5.049-2.26-5.049-5.048c0-2.788,2.261-5.048,5.049-5.048C360.953,182.243,363.213,184.503,363.213,187.291z"/>
  <path style="fill:none;stroke:#706F6F;stroke-width:2;stroke-miterlimit:10;" d="M264.198,67.509c0,4.617-3.743,8.359-8.359,8.359 c-4.617,0-8.36-3.743-8.36-8.359c0-4.616,3.743-8.359,8.36-8.359C260.455,59.15,264.198,62.893,264.198,67.509z"/>
  <g>
    <line style="fill:none;stroke:#706F6F;stroke-width:2;stroke-linecap:round;stroke-linejoin:round;stroke-miterlimit:10;" x1="318.896" y1="80.646" x2="310.889" y2="88.653"/>
    <line style="fill:none;stroke:#706F6F;stroke-width:2;stroke-linecap:round;stroke-linejoin:round;stroke-miterlimit:10;" x1="318.896" y1="88.653" x2="310.889" y2="80.646"/>
  </g>
  <g>
    <line style="fill:none;stroke:#706F6F;stroke-width:2;stroke-linecap:round;stroke-linejoin:round;stroke-miterlimit:10;" x1="100.84" y1="173.901" x2="92.832" y2="181.909"/>
    <line style="fill:none;stroke:#706F6F;stroke-width:2;stroke-linecap:round;stroke-linejoin:round;stroke-miterlimit:10;" x1="100.84" y1="181.909" x2="92.832" y2="173.901"/>
  </g>
  <g>
    <line style="fill:none;stroke:#706F6F;stroke-width:2;stroke-linecap:round;stroke-linejoin:round;stroke-miterlimit:10;" x1="399.067" y1="280.853" x2="391.06" y2="288.862"/>
    <line style="fill:none;stroke:#706F6F;stroke-width:2;stroke-linecap:round;stroke-linejoin:round;stroke-miterlimit:10;" x1="399.067" y1="288.862" x2="391.06" y2="280.853"/>
  </g>
  <g>
    <line style="fill:none;stroke:#706F6F;stroke-width:2;stroke-linecap:round;stroke-linejoin:round;stroke-miterlimit:10;" x1="267.104" y1="167.658" x2="259.098" y2="175.665"/>
    <line style="fill:none;stroke:#706F6F;stroke-width:2;stroke-linecap:round;stroke-linejoin:round;stroke-miterlimit:10;" x1="267.104" y1="175.665" x2="259.098" y2="167.658"/>
  </g>
  <path style="fill:none;stroke:#706F6F;stroke-width:2;stroke-linecap:round;stroke-linejoin:round;stroke-miterlimit:10;" d=" M118.765,187.29c0,3.274-2.653,5.928-5.927,5.928c-3.274,0-5.928-2.654-5.928-5.928c0-3.273,2.654-5.927,5.928-5.927 C116.112,181.363,118.765,184.017,118.765,187.29z"/>
  <path style="fill:none;stroke:#706F6F;stroke-width:2;stroke-linecap:round;stroke-linejoin:round;stroke-miterlimit:10;" d=" M343.763,100.189c0,1.662-1.346,3.01-3.01,3.01c-1.662,0-3.01-1.348-3.01-3.01c0-1.662,1.348-3.01,3.01-3.01 C342.417,97.179,343.763,98.527,343.763,100.189z"/>
  <g>
    <path style="fill:#FFE297;stroke:#EFBE68;stroke-width:2;stroke-miterlimit:10;" d="M217.343,78.771 c0,16.021-12.987,29.009-29.008,29.009c-16.023,0-29.01-12.988-29.01-29.009c0-16.021,12.987-29.009,29.01-29.009 C204.355,49.763,217.343,62.75,217.343,78.771z"/>
    <path style="fill:#EFBE68;" d="M188.489,84.47l6.207-6.209c3.468,0.654,7.767,0.838,10.059-1.455 c4.199-4.199,3.408-10.93-4.046-11.074c-0.144-7.453-6.876-8.246-11.074-4.046c-2.201,2.201-2.118,6.25-1.531,9.639l-6.55,6.552 c-3.389-0.589-7.439-0.671-9.64,1.53c-4.199,4.199-3.407,10.93,4.046,11.075c0.145,7.453,6.876,8.246,11.074,4.046 C189.327,92.235,189.142,87.938,188.489,84.47z"/>
  </g>
  <g>
    <g>
      <path style="fill:#C8F1F6;stroke:#97E6D5;stroke-width:2;stroke-miterlimit:10;" d="M341.955,155.957 c0,16.021-12.987,29.009-29.008,29.009c-16.022,0-29.01-12.988-29.01-29.009c0-16.021,12.987-29.009,29.01-29.009 C328.968,126.948,341.955,139.936,341.955,155.957z"/>
    </g>
    <path style="fill:#97E6D5;" d="M301.525,153.398c-8.344,8.345-3.859,17.06-3.859,17.06s8.716,4.485,17.06-3.859 c4.249-4.249,6.376-9.798,7.439-14.223l11.157-4.373l-10.088-3.112l-3.113-10.087l-4.372,11.156 C311.323,147.023,305.775,149.149,301.525,153.398z M306.087,162.038c1.264,1.263,1.263,3.311,0,4.574 c-1.264,1.263-3.31,1.264-4.573,0c-1.264-1.264-1.264-3.311,0-4.573C302.777,160.774,304.823,160.774,306.087,162.038z"/>
  </g>
</svg>